# xmcd
#
# Track frame offsets: 
#        150
#        13721
#        28581
#        42592
#        57553
#        71668
#        85798
#        99753
#        114500
#        127939
#        141145
#        154615
#        167754
#        174850
#        187439
#        205226
#
# Disc length: 2901 seconds
#
# Revision: 0
# Processed by: cddbd v1.5.2PL0 Copyright (c) Steve Scherf et al.
# Submitted via: ExactAudioCopy v0.99pb4
#
DISCID=d80b5310
DTITLE=John Lee Hooker - John Lee Hooker - Hobo Blues
DYEAR=2006
DGENRE=Blues
TTITLE0=John Lee Hooker - Wandering Blues
TTITLE1=John Lee Hooker - Don't Go Baby (Please Don't Go0
TTITLE2=John Lee Hooker - Louise
TTITLE3=John Lee Hooker - Sugar Mama
TTITLE4=John Lee Hooker - Boogie Chillen
TTITLE5=John Lee Hooker - Hobo Blues
TTITLE6=John Lee Hooker - Crawling King Snake
TTITLE7=John Lee Hooker - How Long Must I Be Your slave
TTITLE8=John Lee Hooker - House Rent Boogie
TTITLE9=John Lee Hooker - I Need Lovin'
TTITLE10=John Lee Hooker - Road Trouble
TTITLE11=John Lee Hooker - I'm In The Mood
TTITLE12=John Lee Hooker - Tease Me Baby
TTITLE13=John Lee Hooker - Morning Blues
TTITLE14=John Lee Hooker - Prison Bound Blues
TTITLE15=John Lee Hooker - It Hurts Me Too
EXTD=
EXTT0=
EXTT1=
EXTT2=
EXTT3=
EXTT4=
EXTT5=
EXTT6=
EXTT7=
EXTT8=
EXTT9=
EXTT10=
EXTT11=
EXTT12=
EXTT13=
EXTT14=
EXTT15=
PLAYORDER=
